<?xml version="1.0" encoding="UTF-8"?>
<svg id="Layer_2" data-name="Layer 2" xmlns="http://www.w3.org/2000/svg" viewBox="0 0 72 72">
  <defs>
    <style>
      .cls-1 {
        fill: #c69320;
      }
    </style>
  </defs>
  <g id="Layer_4" data-name="Layer 4">
    <g>
      <polygon class="cls-1" points="53.86 61.57 36 36.8 18.14 61.57 18.14 11.87 19.07 11.87 19.07 58.68 36 35.2 52.93 58.68 52.93 11.87 53.86 11.87 53.86 61.57"/>
      <rect class="cls-1" x="35.53" y=".47" width=".93" height="32.25"/>
      <path class="cls-1" d="M52.46,4.5c1.62,1.42,2.07,3.78,1.08,5.69,1.42-1.62,3.78-2.07,5.69-1.08-1.62-1.42-2.07-3.78-1.08-5.69-1.42,1.62-3.78,2.07-5.69,1.08Z"/>
      <path class="cls-1" d="M36,72C16.15,72,0,55.85,0,36c0-6.3,1.65-12.49,4.77-17.92,3.03-5.26,7.37-9.71,12.56-12.87l.48.8C7.25,12.43.93,23.64.93,36c0,19.34,15.73,35.07,35.07,35.07s35.07-15.73,35.07-35.07c0-10.19-4.42-19.86-12.13-26.53l.61-.71c7.92,6.85,12.46,16.78,12.46,27.24,0,19.85-16.15,36-36,36Z"/>
      <path class="cls-1" d="M19.76,4.91l-.43-.83C24.43,1.41,30.2,0,36,0s11.56,1.41,16.67,4.08l-.43.83c-4.97-2.6-10.59-3.98-16.24-3.98s-11.27,1.38-16.24,3.98Z"/>
    </g>
  </g>
</svg>