<?xml version="1.0" encoding="UTF-8"?>
<svg id="Layer_2" data-name="Layer 2" xmlns="http://www.w3.org/2000/svg" xmlns:xlink="http://www.w3.org/1999/xlink" viewBox="0 0 171.93 171.94">
  <defs>
    <style>
      .cls-1 {
        fill: none;
      }

      .cls-2 {
        fill: url(#linear-gradient-8);
      }

      .cls-3 {
        fill: url(#linear-gradient-7);
      }

      .cls-4 {
        fill: url(#linear-gradient-5);
      }

      .cls-5 {
        fill: url(#linear-gradient-6);
      }

      .cls-6 {
        fill: url(#linear-gradient-4);
      }

      .cls-7 {
        fill: url(#linear-gradient-3);
      }

      .cls-8 {
        fill: url(#linear-gradient-2);
      }

      .cls-9 {
        fill: #3c2221;
      }

      .cls-10 {
        fill: url(#linear-gradient);
      }

      .cls-11 {
        clip-path: url(#clippath-1);
      }

      .cls-12 {
        clip-path: url(#clippath-2);
      }

      .cls-13 {
        fill: #2f2925;
      }

      .cls-14 {
        fill: #fce39d;
      }

      .cls-15 {
        clip-path: url(#clippath);
      }
    </style>
    <linearGradient id="linear-gradient" x1="85.97" y1="128.28" x2="170.58" y2="128.28" gradientUnits="userSpaceOnUse">
      <stop offset=".1" stop-color="#d0cfce"/>
      <stop offset=".32" stop-color="#b8b6b5"/>
      <stop offset=".59" stop-color="#a29e9c"/>
      <stop offset=".75" stop-color="#9a9694"/>
    </linearGradient>
    <linearGradient id="linear-gradient-2" x1="-7328.9" y1="4934.05" x2="-7328.9" y2="4849.43" gradientTransform="translate(4935.4 7457.18) rotate(90)" gradientUnits="userSpaceOnUse">
      <stop offset=".1" stop-color="#d0cfce"/>
      <stop offset=".32" stop-color="#b8b6b5"/>
      <stop offset=".59" stop-color="#a29e9c"/>
      <stop offset=".75" stop-color="#9a9694"/>
    </linearGradient>
    <clipPath id="clippath">
      <path class="cls-8" d="M85.97,170.59c-5.02-12.38-15.34-33.22-35.7-52.85-18.24-17.59-37-26.93-48.93-31.76,12.84,7.26,29.03,18.08,45.36,33.86,18.92,18.28,31.35,36.76,39.26,50.75Z"/>
    </clipPath>
    <linearGradient id="linear-gradient-3" x1="-7328.9" y1="4934.05" x2="-7328.9" y2="4849.43" gradientTransform="translate(4935.4 7457.18) rotate(90)" gradientUnits="userSpaceOnUse">
      <stop offset=".1" stop-color="#d4cdcc"/>
      <stop offset=".32" stop-color="#beb4b3"/>
      <stop offset=".59" stop-color="#a99b9a"/>
      <stop offset=".75" stop-color="#a29392"/>
    </linearGradient>
    <linearGradient id="linear-gradient-4" x1="-7455.84" y1="4891.74" x2="-7371.22" y2="4891.74" gradientTransform="translate(4935.4 7457.18) rotate(90)" gradientUnits="userSpaceOnUse">
      <stop offset=".1" stop-color="#d0cfce"/>
      <stop offset=".32" stop-color="#b8b6b5"/>
      <stop offset=".59" stop-color="#a29e9c"/>
      <stop offset=".75" stop-color="#9a9694"/>
    </linearGradient>
    <clipPath id="clippath-1">
      <path class="cls-6" d="M1.35,85.97c12.38-5.02,33.22-15.34,52.85-35.7,17.59-18.24,26.93-37,31.76-48.93-7.26,12.84-18.08,29.03-33.86,45.36C33.81,65.63,15.33,78.06,1.35,85.97Z"/>
    </clipPath>
    <linearGradient id="linear-gradient-5" x1="-7455.84" y1="4891.74" x2="-7371.22" y2="4891.74" gradientTransform="translate(4935.4 7457.18) rotate(90)" gradientUnits="userSpaceOnUse">
      <stop offset=".1" stop-color="#d4cdcc"/>
      <stop offset=".32" stop-color="#beb4b3"/>
      <stop offset=".59" stop-color="#a99b9a"/>
      <stop offset=".75" stop-color="#a29392"/>
    </linearGradient>
    <linearGradient id="linear-gradient-6" x1="-7413.52" y1="4849.43" x2="-7413.52" y2="4764.81" gradientTransform="translate(4935.4 7457.18) rotate(90)" xlink:href="#linear-gradient"/>
    <linearGradient id="linear-gradient-7" x1="-7413.52" y1="4849.43" x2="-7413.52" y2="4764.81" gradientTransform="translate(4935.4 7457.18) rotate(90)" xlink:href="#linear-gradient"/>
    <clipPath id="clippath-2">
      <path class="cls-3" d="M85.96,1.36c5.02,12.38,15.34,33.22,35.7,52.85,18.24,17.59,37,26.93,48.93,31.76-12.84-7.26-29.03-18.08-45.36-33.86C106.3,33.82,93.87,15.34,85.96,1.36Z"/>
    </clipPath>
    <linearGradient id="linear-gradient-8" x1="-7413.52" y1="4849.43" x2="-7413.52" y2="4764.81" gradientTransform="translate(4935.4 7457.18) rotate(90)" gradientUnits="userSpaceOnUse">
      <stop offset=".1" stop-color="#d4cdcc"/>
      <stop offset=".32" stop-color="#beb4b3"/>
      <stop offset=".59" stop-color="#a99b9a"/>
      <stop offset=".75" stop-color="#a29392"/>
    </linearGradient>
  </defs>
  <g id="Layer_5" data-name="Layer 5">
    <g>
      <path class="cls-9" d="M170.59,85.97c-11.93-4.83-30.68-14.17-48.93-31.76C101.31,34.58,90.99,13.73,85.97,1.36h0c-4.83,11.92-14.17,30.68-31.76,48.92C34.57,70.63,13.73,80.95,1.35,85.97h0c11.93,4.84,30.68,14.17,48.93,31.77,20.35,19.63,30.68,40.47,35.7,52.85h0c4.83-11.92,14.17-30.68,31.76-48.92,19.63-20.35,40.47-30.68,52.85-35.7h0Z"/>
      <path class="cls-1" d="M85.97,171.94c-.48,0-.94-.26-1.18-.68-10.52-18.62-23.65-35.59-39.02-50.45-13.53-13.07-28.7-24.4-45.09-33.67-.42-.24-.68-.68-.68-1.17s.26-.94.68-1.18c18.62-10.52,35.59-23.65,50.44-39.02,13.09-13.54,24.41-28.71,33.66-45.09.21-.37.59-.63,1.02-.67.43-.05.85.11,1.14.43.07.07.14.17.18.25,10.52,18.62,23.65,35.59,39.02,50.44,13.54,13.09,28.71,24.41,45.09,33.66.42.24.68.68.68,1.17s-.26.94-.68,1.18c-18.62,10.52-35.59,23.65-50.44,39.02-13.06,13.51-24.38,28.68-33.66,45.09-.24.42-.69.68-1.17.68ZM4.04,85.97c15.81,9.16,30.47,20.22,43.6,32.91,15,14.49,27.88,30.97,38.33,49.02,9.17-15.83,20.23-30.49,32.9-43.6,14.49-14.99,30.97-27.88,49.02-38.32-15.8-9.14-30.46-20.2-43.6-32.9-14.99-14.49-27.88-30.98-38.33-49.02-9.14,15.8-20.2,30.46-32.9,43.6-14.49,14.99-30.97,27.88-49.02,38.33Z"/>
      <g>
        <path class="cls-9" d="M85.96,1.35c7.9,13.99,20.34,32.47,39.25,50.75,16.34,15.79,32.53,26.61,45.37,33.86h0c-13.99,7.91-32.47,20.35-50.75,39.26-15.79,16.34-26.6,32.53-33.86,45.37h0c-7.9-13.99-20.34-32.47-39.25-50.75C30.37,104.06,14.18,93.23,1.34,85.97h0c13.99-7.91,32.47-20.35,50.75-39.26C67.88,30.37,78.7,14.18,85.95,1.34h0Z"/>
        <path class="cls-13" d="M85.96,1.35c7.9,13.99,20.34,32.47,39.25,50.75,16.34,15.79,32.53,26.61,45.37,33.86h0c-13.99,7.91-32.47,20.35-50.75,39.26-15.79,16.34-26.6,32.53-33.86,45.37h0c-7.9-13.99-20.34-32.47-39.25-50.75C30.37,104.06,14.18,93.23,1.34,85.97h0c13.99-7.91,32.47-20.35,50.75-39.26C67.88,30.37,78.7,14.18,85.95,1.34h0Z"/>
        <path class="cls-9" d="M85.97,171.94c-.48,0-.94-.26-1.18-.68-10.52-18.62-23.65-35.59-39.02-50.45-13.53-13.07-28.7-24.4-45.09-33.67-.42-.24-.68-.68-.68-1.17s.26-.94.68-1.18c18.62-10.52,35.59-23.65,50.44-39.02,13.09-13.54,24.41-28.71,33.66-45.09.21-.37.59-.63,1.02-.67.43-.05.85.11,1.14.43.07.07.14.17.18.25,10.52,18.62,23.65,35.59,39.02,50.44,13.54,13.09,28.71,24.41,45.09,33.66.42.24.68.68.68,1.17s-.26.94-.68,1.18c-18.62,10.52-35.59,23.65-50.44,39.02-13.06,13.51-24.38,28.68-33.66,45.09-.24.42-.69.68-1.17.68ZM4.04,85.97c15.81,9.16,30.47,20.22,43.6,32.91,15,14.49,27.88,30.97,38.33,49.02,9.17-15.83,20.23-30.49,32.9-43.6,14.49-14.99,30.97-27.88,49.02-38.32-15.8-9.14-30.46-20.2-43.6-32.9-14.99-14.49-27.88-30.98-38.33-49.02-9.14,15.8-20.2,30.46-32.9,43.6-14.49,14.99-30.97,27.88-49.02,38.33Z"/>
      </g>
      <path class="cls-10" d="M170.58,85.97c-12.38,5.02-33.22,15.34-52.85,35.7-17.59,18.24-26.93,37-31.76,48.93,7.26-12.84,18.08-29.03,33.86-45.36,18.28-18.92,36.76-31.35,50.75-39.26Z"/>
      <g>
        <path class="cls-8" d="M85.97,170.59c-5.02-12.38-15.34-33.22-35.7-52.85-18.24-17.59-37-26.93-48.93-31.76,12.84,7.26,29.03,18.08,45.36,33.86,18.92,18.28,31.35,36.76,39.26,50.75Z"/>
        <g class="cls-15">
          <path class="cls-7" d="M1.35,85.98c12.84,7.26,29.03,18.08,45.36,33.86,18.92,18.28,31.35,36.76,39.26,50.75"/>
        </g>
      </g>
      <g>
        <path class="cls-6" d="M1.35,85.97c12.38-5.02,33.22-15.34,52.85-35.7,17.59-18.24,26.93-37,31.76-48.93-7.26,12.84-18.08,29.03-33.86,45.36C33.81,65.63,15.33,78.06,1.35,85.97Z"/>
        <g class="cls-11">
          <path class="cls-4" d="M85.96,1.34c-7.26,12.84-18.08,29.03-33.86,45.36C33.81,65.63,15.33,78.06,1.35,85.97"/>
        </g>
      </g>
      <g>
        <path class="cls-5" d="M85.96,1.36c5.02,12.38,15.34,33.22,35.7,52.85,18.24,17.59,37,26.93,48.93,31.76-12.84-7.26-29.03-18.08-45.36-33.86C106.3,33.82,93.87,15.34,85.96,1.36Z"/>
        <g class="cls-12">
          <path class="cls-2" d="M170.58,85.97c-12.84-7.26-29.03-18.08-45.36-33.86C106.3,33.82,93.87,15.34,85.96,1.36"/>
        </g>
      </g>
      <g>
        <g>
          <path class="cls-14" d="M80.99,53.15c2.6.32,4.66,2.38,4.97,4.98.32-2.6,2.38-4.66,4.98-4.98-2.6-.32-4.66-2.38-4.98-4.97-.32,2.6-2.38,4.66-4.97,4.97Z"/>
          <path class="cls-14" d="M81.14,49.79c.87-1.82,2.23-3.15,3.61-3.36h0s0,0,0,0c-3.33,0-4.8.71-6.06,3.36-.87,1.82-2.23,3.15-3.62,3.36,3.33,0,4.8-.71,6.06-3.36Z"/>
          <path class="cls-14" d="M81.14,56.51c-1.26-2.65-2.73-3.37-6.06-3.36,1.39.21,2.75,1.54,3.62,3.36,1.26,2.65,2.73,3.36,6.06,3.36h0c-1.39-.21-2.75-1.54-3.61-3.36Z"/>
          <path class="cls-14" d="M93.24,49.79c-1.26-2.65-2.73-3.37-6.06-3.36h0s0,0,0,0c1.39.21,2.74,1.54,3.61,3.36,1.26,2.65,2.73,3.36,6.06,3.36-1.39-.21-2.74-1.54-3.61-3.36Z"/>
          <path class="cls-14" d="M96.86,53.15c-3.33,0-4.8.71-6.06,3.36-.87,1.82-2.23,3.15-3.61,3.36h0c3.33,0,4.8-.71,6.06-3.36.87-1.82,2.23-3.15,3.61-3.36Z"/>
        </g>
        <g>
          <path class="cls-14" d="M69.52,114.05l.62-4.38h.07l1.78,3.59,1.76-3.59h.07l.63,4.38h-.43l-.43-3.13-1.55,3.13h-.11l-1.57-3.15-.43,3.15h-.42Z"/>
          <path class="cls-14" d="M78.91,109.66l2.04,4.38h-.47l-.69-1.44h-1.89l-.68,1.44h-.49l2.07-4.38h.11ZM78.86,110.59l-.76,1.59h1.5l-.74-1.59Z"/>
          <path class="cls-14" d="M83.08,113.16l.37-.22c.26.48.56.72.91.72.15,0,.29-.03.42-.1.13-.07.23-.16.3-.27.07-.11.1-.24.1-.37,0-.15-.05-.29-.15-.43-.14-.19-.39-.39-.75-.6-.37-.28-.59-.47-.68-.6-.15-.2-.23-.43-.23-.67,0-.19.04-.36.14-.52.09-.16.22-.28.38-.37.17-.09.35-.14.54-.14.2,0,.4.05.58.15.18.1.37.29.57.57l-.36.27c-.16-.22-.3-.36-.42-.43-.12-.07-.24-.1-.38-.1-.18,0-.32.05-.43.16-.11.11-.17.24-.17.39,0,.09.02.19.06.28.04.09.11.19.22.29.06.06.25.2.57.44.38.28.64.51.78.69.14.18.21.38.21.6,0,.32-.12.6-.36.83-.24.23-.53.35-.88.35-.27,0-.51-.07-.73-.21-.22-.14-.41-.38-.6-.71Z"/>
          <path class="cls-14" d="M87.85,110.1v-.43h2.4v.43h-.98v3.95h-.45v-3.95h-.98Z"/>
          <path class="cls-14" d="M92.7,109.67h2.51v.43h-2.07v1.37h1.26v.42h-1.26v1.72h2.05v.43h-2.49v-4.38Z"/>
          <path class="cls-14" d="M97.9,109.67h.87c.49,0,.82.02.99.06.26.06.47.19.63.38.16.2.24.44.24.72,0,.24-.06.45-.17.63-.11.18-.27.31-.48.41-.21.09-.39.14-.54.14l1.25,2.04h-.54l-1.25-2.04h-.57v2.04h-.44v-4.38ZM98.34,110.1v1.49h.75c.29,0,.51-.02.65-.08.14-.06.25-.14.33-.27.08-.12.12-.26.12-.41s-.04-.28-.12-.4c-.08-.12-.18-.21-.31-.26-.13-.05-.34-.08-.64-.08h-.77Z"/>
          <path class="cls-14" d="M64.45,118.42l-.35.26c-.19-.25-.42-.44-.68-.56s-.56-.19-.88-.19c-.35,0-.67.08-.97.25-.3.17-.53.39-.69.68-.16.28-.25.6-.25.95,0,.53.18.96.55,1.29.37.33.83.49,1.38.49.61,0,1.13-.24,1.54-.72l.35.26c-.22.28-.49.49-.82.64-.33.15-.69.23-1.09.23-.77,0-1.37-.26-1.81-.76-.37-.43-.56-.92-.56-1.46,0-.64.23-1.18.67-1.62.45-.44,1.01-.66,1.69-.66.41,0,.78.08,1.11.24.33.16.6.39.81.68Z"/>
          <path class="cls-14" d="M65.76,117.58h.44v1.84h2.23v-1.84h.44v4.38h-.44v-2.11h-2.23v2.11h-.44v-4.38Z"/>
          <path class="cls-14" d="M72.47,117.51c.66,0,1.21.22,1.66.66.45.44.67.99.67,1.63s-.22,1.17-.67,1.58c-.45.41-.99.62-1.63.62s-1.2-.22-1.64-.67-.67-.95-.67-1.51c0-.42.1-.81.3-1.17.2-.36.48-.64.83-.85.35-.2.73-.3,1.14-.3ZM72.48,117.94c-.32,0-.63.08-.92.25-.29.17-.52.4-.68.68-.16.29-.24.6-.24.95,0,.52.18.94.54,1.26.36.32.79.48,1.3.48.34,0,.65-.08.94-.25.29-.16.51-.39.68-.67.16-.28.24-.57.24-.85,0-.35-.08-.66-.24-.94-.16-.28-.39-.51-.68-.68-.29-.17-.6-.25-.94-.25Z"/>
          <path class="cls-14" d="M80.2,118.42l-.35.26c-.19-.25-.42-.44-.68-.56-.27-.13-.56-.19-.88-.19-.35,0-.67.08-.97.25-.3.17-.53.39-.69.68-.16.28-.25.6-.25.95,0,.53.18.96.55,1.29.37.33.83.49,1.38.49.61,0,1.13-.24,1.54-.72l.35.26c-.22.28-.49.49-.82.64-.33.15-.69.23-1.09.23-.77,0-1.37-.26-1.82-.76-.37-.43-.56-.92-.56-1.46,0-.64.23-1.18.67-1.62.45-.44,1.01-.66,1.69-.66.41,0,.78.08,1.11.24.33.16.6.39.81.68Z"/>
          <path class="cls-14" d="M83.61,117.51c.66,0,1.21.22,1.66.66.45.44.67.99.67,1.63s-.22,1.17-.67,1.58c-.45.41-.99.62-1.63.62s-1.2-.22-1.64-.67c-.45-.44-.67-.95-.67-1.51,0-.42.1-.81.3-1.17.2-.36.48-.64.83-.85.35-.2.73-.3,1.14-.3ZM83.63,117.94c-.32,0-.63.08-.92.25-.29.17-.52.4-.68.68-.16.29-.24.6-.24.95,0,.52.18.94.54,1.26.36.32.79.48,1.3.48.34,0,.65-.08.94-.25.29-.16.51-.39.68-.67.16-.28.24-.57.24-.85,0-.35-.08-.66-.24-.94-.16-.28-.39-.51-.68-.68-.29-.17-.6-.25-.94-.25Z"/>
          <path class="cls-14" d="M87.27,117.57h.44v3.95h1.68v.42h-2.12v-4.38Z"/>
          <path class="cls-14" d="M92.32,117.57l2.04,4.38h-.47l-.69-1.44h-1.89l-.68,1.44h-.49l2.07-4.38h.11ZM92.27,118.5l-.76,1.59h1.5l-.74-1.59Z"/>
          <path class="cls-14" d="M94.61,118.01v-.42h2.4v.42h-.98v3.95h-.45v-3.95h-.98Z"/>
          <path class="cls-14" d="M98.03,117.58h.44v4.38h-.44v-4.38Z"/>
          <path class="cls-14" d="M99.92,117.58h2.51v.43h-2.07v1.37h1.26v.42h-1.26v1.72h2.05v.43h-2.49v-4.38Z"/>
          <path class="cls-14" d="M103.76,117.58h.87c.49,0,.82.02.99.06.26.06.47.19.63.38.16.19.24.43.24.72,0,.24-.06.45-.17.63-.11.18-.27.31-.48.41-.21.09-.39.14-.54.14l1.25,2.04h-.54l-1.25-2.04h-.57v2.04h-.44v-4.38ZM104.2,118.01v1.49h.75c.29,0,.51-.02.65-.08.14-.05.25-.14.33-.27.08-.12.12-.26.12-.41s-.04-.28-.12-.4c-.08-.12-.18-.21-.31-.26-.13-.05-.34-.08-.64-.08h-.77Z"/>
          <path class="cls-14" d="M107.53,121.08l.37-.22c.26.48.56.72.91.72.15,0,.29-.03.42-.1.13-.07.23-.16.3-.27.07-.12.1-.24.1-.37,0-.15-.05-.29-.15-.43-.14-.19-.39-.39-.75-.6-.37-.27-.59-.47-.68-.6-.15-.2-.23-.43-.23-.67,0-.19.04-.36.14-.52.09-.16.22-.28.39-.37.17-.09.35-.14.54-.14.2,0,.4.05.58.15.18.1.37.29.57.57l-.36.27c-.16-.22-.3-.36-.42-.43-.12-.07-.24-.1-.38-.1-.18,0-.32.05-.43.16-.11.11-.17.24-.17.39,0,.09.02.19.06.28.04.09.11.19.22.29.06.06.25.2.57.44.38.28.64.51.78.69.14.18.21.38.21.6,0,.32-.12.6-.36.83-.24.24-.53.35-.88.35-.27,0-.51-.07-.73-.21-.22-.14-.41-.38-.6-.71Z"/>
        </g>
        <g>
          <path class="cls-14" d="M41.72,87.09v-3.85l-.13.09h-5.97v-6.55h6.77l.13.13v-4.24l-.13.13h-11.36v9.09c0,1.61,1.31,2.93,2.93,2.93-1.61,0-2.93,1.31-2.93,2.93v9.59c0,.65-.16,1.55-1.18,1.78h3.43c1.29,0,2.34-1.05,2.34-2.34v-9.78h5.97l.13.09Z"/>
          <path class="cls-14" d="M141.95,95.15h-7.37v-8.15h5.99l.13.09v-3.85l-.13.09h-5.99v-6.55h6.79l.13.13v-4.24l-.13.13h-11.39v9.09c0,1.61,1.31,2.93,2.93,2.93-1.61,0-2.93,1.31-2.93,2.93v9.59c0,.65-.16,1.54-1.18,1.78h13.14l.13.13v-4.24l-.13.13Z"/>
          <path class="cls-14" d="M90.55,95.15h-1.59v-8.15h5.99l.13.09v-3.85l-.13.09h-5.99v-6.55h6.79l.13.13v-4.24l-.13.13h-11.39v9.09c0,1.61,1.31,2.93,2.93,2.93-1.61,0-2.93,1.31-2.93,2.93v9.59c0,.65-.16,1.55-1.18,1.78h13.14l.13.13v-4.24l-.13.13h-5.78Z"/>
          <path class="cls-14" d="M55.16,72.81h-5.95l.07.13-6.62,26.06-.16.13h5.43l-.09-.13,1-4.64h6.67l.48,2.23c.32,1.48,1.63,2.53,3.14,2.53h2.59l-6.65-26.19.07-.13ZM49.67,90.59l2.52-11.67,2.52,11.67h-5.04Z"/>
          <path class="cls-14" d="M74.3,72.81h-9.17l.19.13v26.06l-.19.13h9.17c3.22,0,5.84-2.62,5.84-5.84v-4.91c0-1.96-1.59-3.55-3.55-3.55,1.96,0,3.55-1.59,3.55-3.55v-2.63c0-3.22-2.62-5.84-5.84-5.84ZM76.16,92.35c0,1.55-1.26,2.8-2.8,2.8h-3.45v-8.15h3.45c1.55,0,2.8,1.26,2.8,2.8v2.54ZM76.16,80.53c0,1.55-1.26,2.8-2.8,2.8h-3.45v-6.55h3.45c1.55,0,2.8,1.26,2.8,2.8v.94Z"/>
          <path class="cls-14" d="M105.05,95.15v-20.52c0-1-.82-1.82-1.82-1.82h-3.95c1.02.23,1.18,1.13,1.18,1.78v24.54h11.3l.13.13v-4.24l-.13.13h-6.71Z"/>
          <path class="cls-14" d="M119.81,95.15v-20.52c0-1-.82-1.82-1.82-1.82h-3.95c1.02.23,1.18,1.13,1.18,1.78v24.54h11.3l.13.13v-4.24l-.13.13h-6.71Z"/>
        </g>
      </g>
    </g>
  </g>
</svg>